# AST/ASF file generated using VICON BodyLanguage
# -----------------------------------------------
:version 1.10
:name VICON
:units
  mass 1.0
  length 0.45
  angle deg
:documentation
   .ast/.asf automatically generated from VICON data using
   VICON BodyBuilder and BodyLanguage model FoxedUp or BRILLIANT.MOD
:root
   order TX TY TZ RX RY RZ
   axis XYZ
   position 0 0 0  
   orientation 0 0 0 
:bonedata
  begin
     id 1 
     name lhipjoint
     direction 0.589753 -0.68606 0.426044 
     length 2.54082 
     axis 0 0 0  XYZ
  end
  begin
     id 2 
     name lfemur
     direction 0.34202 -0.939693 0  
     length 7.04539  
     axis 0 0 20  XYZ
    dof rx ry rz
    limits (-160.0 20.0)
           (-70.0 70.0)
           (-60.0 70.0)
  end
  begin
     id 3 
     name ltibia
     direction 0.34202 -0.939693 0   
     length 7.83772   
     axis 0 0 20   XYZ
    dof rx
    limits (-10.0 170.0)
  end
  begin
     id 4 
     name lfoot
     direction 0.0596604 -0.163915 0.984669   
     length 2.39542   
     axis -90 7.62852e-016 20   XYZ
    dof rx rz
    limits (-45.0 90.0)
           (-70.0 20.0)
  end
  begin
     id 5 
     name ltoes
     direction 1.53514e-011 -4.21954e-011 1   
     length 1.2047   
     axis -90 7.62852e-016 20   XYZ
    dof rx
    limits (-90.0 20.0)
  end
  begin
     id 6 
     name rhipjoint
     direction -0.580585 -0.69168 0.429534   
     length 2.52018  
     axis 0 0 0  XYZ 
  end
  begin
     id 7 
     name rfemur
     direction -0.34202 -0.939693 0   
     length 7.0101   
     axis 0 0 -20   XYZ
    dof rx ry rz
    limits (-160.0 20.0)
           (-70.0 70.0)
           (-70.0 60.0)
  end
  begin
     id 8 
     name rtibia
     direction -0.34202 -0.939693 0   
     length 7.70628   
     axis 0 0 -20   XYZ
    dof rx
    limits (-10.0 170.0)
 end
 begin
     id 9 
     name rfoot
     direction -0.0696237 -0.19129 0.979061   
     length 2.52466  
     axis -90 -7.62852e-016 -20   XYZ
    dof rx rz
    limits (-45.0 90.0)
           (-20.0 70.0)
  end
  begin
     id 10 
     name rtoes
     direction -1.53519e-011 -4.21793e-011 1   
     length 1.266   
     axis -90 -7.62852e-016 -20   XYZ
    dof rx
    limits (-90.0 20.0)
  end
  begin
     id 11 
     name lowerback
     direction 0.00381965 0.995707 -0.0924856   
     length 2.20825   
     axis 0 0 0   XYZ
    dof rx ry rz
    limits (-20.0 45.0)
           (-30.0 30.0)
           (-30.0 30.0)
  end
  begin
     id 12 
     name upperback
     direction -0.0139043 0.999634 -0.0231929   
     length 2.21517   
     axis 0 0 0   XYZ
    dof rx ry rz
    limits (-20.0 45.0)
           (-30.0 30.0)
           (-30.0 30.0)
  end
  begin
     id 13 
     name thorax
     direction -0.0143933 0.999691 0.0202892   
     length 2.22911   
     axis 0 0 0   XYZ
    dof rx ry rz
    limits (-20.0 45.0)
           (-30.0 30.0)
           (-30.0 30.0)
  end
  begin
     id 14 
     name lowerneck
     direction -0.0251153 0.981819 0.188153   
     length 1.61782   
     axis 0 0 0   XYZ
    dof rx ry rz
    limits (-20.0 45.0)
           (-30.0 30.0)
           (-30.0 30.0)
  end
  begin
     id 15 
     name upperneck
     direction 0.0563891 0.969357 -0.239095   
     length 1.64526   
     axis 0 0 0   XYZ
    dof rx ry rz
    limits (-20.0 45.0)
           (-30.0 30.0)
           (-30.0 30.0)
  end
  begin
     id 16
     name head
     direction 0.0208328 0.99459 -0.101773  
     length 1.67436  
     axis 0 0 0   XYZ
    dof rx ry rz
    limits (-20.0 45.0)
           (-30.0 30.0)
           (-30.0 30.0)
  end
  begin
     id 17 
     name lclavicle
     direction 0.917689 0.397224 0.00772059  
     length 3.31102  
     axis 0 0 0   XYZ
    dof ry rz
    limits (-20.0 10.0)
           (0.0 20.0)
  end
  begin
     id 18 
     name lhumerus
     direction 1 -4.4896e-011 2.32308e-027   
     length 5.25537   
     axis 180 -30 -90   XYZ
    dof rx ry rz
    limits (-60.0 90.0)
           (-90.0 90.0)
           (-90.0 90.0)
  end
  begin
     id 19
     name lradius
     direction 1 -4.49005e-011 -2.04271e-027   
     length 3.38855   
     axis 180 -30 -90   XYZ
    dof rx
    limits (-10.0 170.0)
  end
  begin
     id 20
     name lwrist
     direction 1 -4.48892e-011 2.56952e-028   
     length 1.69428   
     axis -5.12785e-016 90 90   XYZ
    dof ry
    limits (-180.0 0.0)
 end
  begin
     id 21 
     name lhand
     direction 1 -4.48966e-011 5.13905e-028   
     length 0.614516   
     axis -3.27915e-016 90 90   XYZ
    dof rx rz
    limits (-90.0 90.0)
           (-45.0 45.0)
  end
  begin
     id 22 
     name lfingers
     direction 1 -4.48979e-011 1.02781e-027   
     length 0.495439   
     axis -6.5583e-016 90 90   XYZ
    dof rx
    limits (0.0 90.0)
  end
  begin
     id 23
     name lthumb
     direction 0.707107 -6.35001e-011 0.707107   
     length 0.711354   
     axis -90 45 2.85299e-015   XYZ
    dof rx rz
    limits (-45.0 45.0)
           (-45.0 45.0)
  end
  begin
     id 24 
     name rclavicle
     direction -0.938556 0.342765 -0.0403177   
     length 3.27019  
     axis 0 0 0   XYZ 
    dof ry rz
    limits (-10.0 20.0)
           (-20.0 0.0)
  end
  begin
     id 25 
     name rhumerus
     direction -1 -4.48966e-011 2.52291e-027  
     length 5.38183   
     axis 180 30 90   XYZ
    dof rx ry rz
    limits (-90.0 60.0)
           (-90.0 90.0)
           (-90.0 90.0)
  end
  begin
     id 26 
     name rradius
     direction -1 -4.4896e-011 1.5797e-027   
     length 3.16988   
     axis 180 30 90   XYZ
    dof rx
    limits (-10.0 170.0)
  end
  begin
     id 27 
     name rwrist
     direction -1 -4.48947e-011 2.56952e-028   
     length 1.58494   
     axis -5.12785e-016 -90 -90   XYZ
    dof ry
    limits (-180.0 0.0)
  end
  begin
     id 28
     name rhand
     direction -1 -4.49098e-011 5.13905e-028   
     length 0.637679   
     axis -3.27915e-016 -90 -90   XYZ
    dof rx rz
    limits (-90.0 90.0)
           (-45.0 45.0)
  end
  begin
     id 29
     name rfingers
     direction -1 -4.49026e-011 1.02781e-027   
     length 0.514113   
     axis -6.5583e-016 -90 -90   XYZ
    dof rx
    limits (0.0 90.0)
  end
  begin
     id 30
     name rthumb
     direction -0.707107 -6.3491e-011 0.707107   
     length 0.738167   
     axis -90 -45 -2.85299e-015   XYZ
    dof rx rz
    limits (-45.0 45.0)
           (-45.0 45.0)
  end
:hierarchy
  begin
    root lhipjoint rhipjoint lowerback
    lhipjoint lfemur
    lfemur ltibia
    ltibia lfoot
    lfoot ltoes
    rhipjoint rfemur
    rfemur rtibia
    rtibia rfoot
    rfoot rtoes
    lowerback upperback
    upperback thorax
    thorax lowerneck lclavicle rclavicle
    lowerneck upperneck
    upperneck head
    lclavicle lhumerus
    lhumerus lradius
    lradius lwrist
    lwrist lhand lthumb
    lhand lfingers
    rclavicle rhumerus
    rhumerus rradius
    rradius rwrist
    rwrist rhand rthumb
    rhand rfingers
  end

#!OML:ASF H:\Swim\Project 1\Capture day 1\Session 1\swimmer.ASF
:FULLY-SPECIFIED
:DEGREES
670
root 4.44537 12.3359 21.2676 59.9629 -7.25293 7.46185
lowerback -8.97297 -1.40564 2.45849
upperback -5.14062 -2.09303 0.191597
thorax -0.380149 -1.11684 -1.3565
lowerneck -18.1005 -10.208 -10.0806
upperneck 28.2964 -18.0045 19.0265
head 16.1384 -6.52494 6.10014
rclavicle 5.12864e-014 1.15295e-014
rhumerus -45.3229 24.1211 -86.5657
rradius 53.841
rwrist 5.35979
rhand -59.2944 67.7919
rfingers 7.12502
rthumb -31.4798 40.483
lclavicle 5.12864e-014 1.15295e-014
lhumerus -48.1599 -20.4466 87.6938
lradius 44.3449
lwrist -20.2009
lhand -63.7287 50.9953
lfingers 7.12502
lthumb -35.6939 -282.614
rfemur -6.49117 27.1029 18.2316
rtibia 30.6283
rfoot -45.9457 -17.9457
rtoes 27.55
lfemur -15.1647 -9.56027 -18.6348
ltibia 31.8966
lfoot -0.800745 10.2385
ltoes -14.8763
671
root 4.43451 12.3199 21.2663 60.0841 -7.42472 7.51774
lowerback -9.03264 -1.48007 2.58973
upperback -5.24771 -2.20506 0.257968
thorax -0.466104 -1.17839 -1.37025
lowerneck -18.284 -10.1698 -10.0098
upperneck 28.2355 -17.976 19.0809
head 16.1474 -6.49227 6.10874
rclavicle -6.75868e-015 3.57812e-015
rhumerus -45.6201 24.2675 -86.5868
rradius 54.3385
rwrist 5.68887
rhand -59.2422 67.5166
rfingers 7.12502
rthumb -31.4302 40.198
lclavicle -6.75868e-015 3.57812e-015
lhumerus -49.0454 -20.7177 87.8463
lradius 45.1396
lwrist -19.6883
lhand -63.2512 47.8656
lfingers 7.12502
lthumb -35.2412 -285.635
rfemur -6.12966 27.6912 18.1299
rtibia 30.5623
rfoot -46.5575 -17.4212
rtoes 28.0518
lfemur -15.0319 -9.58089 -18.6894
ltibia 31.8905
lfoot -0.826411 10.4072
ltoes -15.0468
672
root 4.42383 12.3041 21.2648 60.2171 -7.60862 7.555
lowerback -9.08994 -1.55998 2.73251
upperback -5.35458 -2.32535 0.311472
thorax -0.554938 -1.24487 -1.40416
lowerneck -18.4731 -10.1146 -9.94324
upperneck 28.1803 -17.9201 19.1307
head 16.1543 -6.44884 6.12297
rclavicle 1.90833e-014 -1.03368e-014
rhumerus -45.8858 24.4531 -86.645
rradius 54.8151
rwrist 6.01186
rhand -59.1975 67.3187
rfingers 7.12502
rthumb -31.3876 39.9919
lclavicle 1.90833e-014 -1.03368e-014
lhumerus -50.0324 -20.9869 87.9577
lradius 46.0889
lwrist -19.2167
lhand -62.6527 44.4109
lfingers 7.12502
lthumb -34.6734 -288.957
rfemur -5.76392 28.3081 18.0333
rtibia 30.4864
rfoot -47.271 -16.8361
rtoes 28.6597
lfemur -14.9024 -9.60952 -18.737
ltibia 31.8806
lfoot -1.05045 10.4989
ltoes -14.744
673
root 4.4133 12.2887 21.263 60.3566 -7.81142 7.57762
lowerback -9.14453 -1.6453 2.8747
upperback -5.45369 -2.45294 0.347472
thorax -0.638793 -1.3154 -1.45628
lowerneck -18.6661 -10.0488 -9.88562
upperneck 28.1192 -17.8462 19.1876
head 16.1575 -6.39841 6.14587
rclavicle -1.90833e-014 1.23246e-014
rhumerus -46.101 24.6614 -86.7362
rradius 55.2545
rwrist 6.32796
rhand -59.1519 67.1142
rfingers 7.12502
rthumb -31.3441 39.7788
lclavicle -1.90833e-014 1.23246e-014
lhumerus -51.1045 -21.2445 88.0112
lradius 47.2073
lwrist -18.7936
lhand -61.9141 40.8735
lfingers 7.12502
lthumb -33.9721 -292.337
rfemur -5.39125 28.9452 17.9376
rtibia 30.4034
rfoot -48.0548 -16.272
rtoes 29.2535
lfemur -14.7676 -9.63079 -18.7873
ltibia 31.8626
lfoot -1.2276 10.6209
ltoes -14.4807
674
root 4.40247 12.2738 21.2605 60.5075 -8.03849 7.57762
lowerback -9.19645 -1.73221 3.00328
upperback -5.54551 -2.58173 0.370103
thorax -0.717157 -1.38651 -1.51461
lowerneck -18.865 -9.9718 -9.83652
upperneck 28.0637 -17.7518 19.2399
head 16.1606 -6.34046 6.17356
rclavicle -1.43125e-014 1.39149e-014
rhumerus -46.2745 24.8651 -86.8462
rradius 55.6708
rwrist 6.65579
rhand -59.1032 66.8985
rfingers 7.12502
rthumb -31.2977 39.5542
lclavicle -1.43125e-014 1.39149e-014
lhumerus -52.2472 -21.461 87.9935
lradius 48.5038
lwrist -18.4465
lhand -61.0844 37.6648
lfingers 7.12502
lthumb -33.1835 -295.374
rfemur -5.02185 29.6115 17.8438
rtibia 30.3179
rfoot -48.9193 -15.7482
rtoes 29.8275
lfemur -14.6252 -9.64334 -18.8396
ltibia 31.8322
lfoot -1.35869 10.7838
ltoes -14.2813
675
root 4.39111 12.2596 21.2578 60.6765 -8.29231 7.54655
lowerback -9.24895 -1.81588 3.11334
upperback -5.63125 -2.705 0.380938
thorax -0.788827 -1.4546 -1.57436
lowerneck -19.0769 -9.87579 -9.78039
upperneck 28.0179 -17.6264 19.2768
head 16.1612 -6.26939 6.20096
rclavicle 8.34896e-015 -5.1684e-015
rhumerus -46.4085 25.0411 -86.966
rradius 56.0689
rwrist 6.99226
rhand -59.0414 66.6671
rfingers 7.12502
rthumb -31.2388 39.3115
lclavicle 8.34896e-015 -5.1684e-015
lhumerus -53.4401 -21.5953 87.874
lradius 49.9867
lwrist -18.2018
lhand -60.2265 35.0075
lfingers 7.12502
lthumb -32.3674 -297.861
rfemur -4.6682 30.3144 17.754
rtibia 30.2367
rfoot -49.8637 -15.2986
rtoes 30.3648
lfemur -14.4799 -9.61622 -18.8889
ltibia 31.7829
lfoot -1.44944 10.9504
ltoes -14.1157
676
root 4.37927 12.2463 21.2551 60.8633 -8.56969 7.47661
lowerback -9.30307 -1.89311 3.20597
upperback -5.70508 -2.81864 0.383753
thorax -0.846717 -1.51729 -1.6322
lowerneck -19.3058 -9.76251 -9.7157
upperneck 27.9788 -17.4716 19.2963
head 16.1588 -6.18571 6.22618
rclavicle -1.74931e-014 2.5842e-014
rhumerus -46.5014 25.1808 -87.0866
rradius 56.4502
rwrist 7.34327
rhand -58.9789 66.4134
rfingers 7.12502
rthumb -31.1792 39.0462
lclavicle -1.74931e-014 2.5842e-014
lhumerus -54.649 -21.5997 87.6114
lradius 51.6634
lwrist -18.0932
lhand -59.3598 32.8098
lfingers 7.12502
lthumb -31.5422 -299.893
rfemur -4.33276 31.0588 17.6766
rtibia 30.1635
rfoot -50.8877 -14.9477
rtoes 30.8539
lfemur -14.3294 -9.55684 -18.9294
ltibia 31.7102
lfoot -1.50953 11.1231
ltoes -13.9748
677
root 4.36695 12.2343 21.2524 61.0639 -8.89215 7.37352
lowerback -9.35024 -1.96319 3.2515
upperback -5.76506 -2.91906 0.375215
thorax -0.891674 -1.57196 -1.6745
lowerneck -19.5512 -9.63583 -9.64574
upperneck 27.9444 -17.2927 19.3011
head 16.1543 -6.09179 6.24958
rclavicle -2.18663e-014 -1.43125e-014
rhumerus -46.5482 25.2866 -87.2018
rradius 56.8124
rwrist 7.69789
rhand -58.9161 66.1528
rfingers 7.12502
rthumb -31.1194 38.7741
lclavicle -2.18663e-014 -1.43125e-014
lhumerus -55.8518 -21.4421 87.1792
lradius 53.5452
lwrist -18.1122
lhand -58.5098 31.0083
lfingers 7.12502
lthumb -30.7321 -301.54
rfemur -4.01723 31.8481 17.5884
rtibia 30.0997
rfoot -51.9754 -14.7316
rtoes 31.28
lfemur -14.1683 -9.46604 -18.9868
ltibia 31.6114
lfoot -1.53183 11.3101
ltoes -13.8371
678
root 4.35461 12.2239 21.2497 61.2792 -9.24677 7.23272
lowerback -9.38453 -2.02238 3.2647
upperback -5.81311 -3.00208 0.357323
thorax -0.929211 -1.61685 -1.70682
lowerneck -19.8057 -9.50658 -9.57472
upperneck 27.9136 -17.1073 19.2979
head 16.1511 -5.99522 6.27096
rclavicle 2.16675e-014 -1.80894e-014
rhumerus -46.5591 25.3522 -87.3096
rradius 57.1608
rwrist 8.0515
rhand -58.8506 65.8855
rfingers 7.12502
rthumb -31.0569 38.4949
lclavicle 2.16675e-014 -1.80894e-014
lhumerus -57.0389 -21.1339 86.585
lradius 55.6338
lwrist -18.1997
lhand -57.6903 29.4911
lfingers 7.12502
lthumb -29.9504 -302.913
rfemur -3.72019 32.6791 17.5026
rtibia 30.0429
rfoot -53.1157 -14.6432
rtoes 31.6591
lfemur -13.9966 -9.3489 -19.0495
ltibia 31.4882
lfoot -1.55665 11.4935
ltoes -13.5987
679
root 4.34258 12.215 21.2471 61.5039 -9.62422 7.05351
lowerback -9.40496 -2.06927 3.25268
upperback -5.84241 -3.06629 0.330649
thorax -0.952889 -1.65114 -1.73261
lowerneck -20.0623 -9.38365 -9.50018
upperneck 27.8742 -16.9274 19.2871
head 16.1438 -5.90147 6.28619
rclavicle -1.86858e-014 -2.38542e-015
rhumerus -46.52 25.3862 -87.406
rradius 57.4838
rwrist 8.40473
rhand -58.7876 65.604
rfingers 7.12502
rthumb -30.9969 38.202
lclavicle -1.86858e-014 -2.38542e-015
lhumerus -58.1884 -20.7056 85.8514
lradius 57.9072
lwrist -18.2915
lhand -56.9121 28.203
lfingers 7.12502
lthumb -29.2076 -304.069
rfemur -3.4365 33.5472 17.4291
rtibia 29.9926
rfoot -54.2917 -14.7072
rtoes 31.9761
lfemur -13.8099 -9.20998 -19.1121
ltibia 31.3422
lfoot -1.5441 11.6872
ltoes -13.2754
680
root 4.33134 12.2076 21.2443 61.7373 -10.0022 6.83535
lowerback -9.3976 -2.10277 3.23721
upperback -5.86313 -3.11122 0.299654
thorax -0.981833 -1.67553 -1.75842
lowerneck -20.2965 -9.27195 -9.43664
upperneck 27.8284 -16.7593 19.2753
head 16.1319 -5.81547 6.30023
rclavicle 2.20651e-014 -3.43897e-014
rhumerus -46.4713 25.3825 -87.4967
rradius 57.8074
rwrist 8.76302
rhand -58.7245 65.3045
rfingers 7.12502
rthumb -30.9368 37.891
lclavicle 2.20651e-014 -3.43897e-014
lhumerus -59.2999 -20.1972 85.0281
lradius 60.3254
lwrist -18.3122
lhand -56.145 27.1116
lfingers 7.12502
lthumb -28.4748 -305.035
rfemur -3.16002 34.4406 17.3889
rtibia 29.9429
rfoot -55.4991 -14.8981
rtoes 32.241
lfemur -13.6132 -9.0538 -19.1564
ltibia 31.1807
lfoot -1.51979 11.879
ltoes -12.8788
681
root 4.32113 12.2016 21.2412 61.9746 -10.3824 6.59072
lowerback -9.36623 -2.12257 3.21011
upperback -5.87113 -3.13598 0.260162
thorax -1.00936 -1.68921 -1.7842
lowerneck -20.4999 -9.16636 -9.38839
upperneck 27.763 -16.5907 19.2627
head 16.1045 -5.73343 6.31583
rclavicle -1.17283e-014 -3.30976e-014
rhumerus -46.4189 25.337 -87.5814
rradius 58.1373
rwrist 9.13203
rhand -58.6659 64.9859
rfingers 7.12502
rthumb -30.8809 37.5617
lclavicle -1.17283e-014 -3.30976e-014
lhumerus -60.3473 -19.661 84.1647
lradius 62.8184
lwrist -18.2226
lhand -55.3889 26.2875
lfingers 7.12502
lthumb -27.752 -305.741
rfemur -2.88564 35.3495 17.3731
rtibia 29.8924
rfoot -56.7231 -15.1384
rtoes 32.4759
lfemur -13.4083 -8.89074 -19.1938
ltibia 31.0082
lfoot -1.49051 12.0655
ltoes -12.4044
